<svg width="1080" height="1080" viewBox="0 0 1080 1080" fill="none" xmlns="http://www.w3.org/2000/svg">
<path d="M934 703.411C934 736.057 927.768 766.868 915.304 795.846C903.206 824.457 886.342 849.583 864.713 871.224C843.451 892.499 818.339 909.372 789.378 921.843C760.783 933.948 730.172 940 697.545 940C668.217 940 639.989 934.865 612.861 924.594C586.1 914.324 561.904 899.285 540.275 879.477C518.646 899.285 494.267 914.324 467.139 924.594C440.011 934.865 411.783 940 382.455 940C349.828 940 319.034 933.948 290.073 921.843C261.478 909.372 236.366 892.499 214.737 871.224C193.474 849.583 176.611 824.457 164.147 795.846C152.049 766.868 146 736.057 146 703.411V140H303.82V703.411C303.82 714.415 305.836 724.869 309.869 734.773C313.901 744.31 319.4 752.746 326.366 760.083C333.698 767.052 342.129 772.554 351.661 776.589C361.192 780.624 371.457 782.641 382.455 782.641C393.453 782.641 403.718 780.624 413.249 776.589C422.781 772.554 431.029 767.052 437.994 760.083C445.326 752.746 451.009 744.31 455.041 734.773C459.074 724.869 461.09 714.415 461.09 703.411V140H618.91V703.411C618.91 714.415 620.926 724.869 624.959 734.773C628.991 744.31 634.49 752.746 641.456 760.083C648.788 767.052 657.219 772.554 666.751 776.589C676.282 780.624 686.547 782.641 697.545 782.641C708.543 782.641 718.808 780.624 728.339 776.589C737.871 772.554 746.119 767.052 753.084 760.083C760.416 752.746 766.099 744.31 770.131 734.773C774.53 724.869 776.73 714.415 776.73 703.411V140H934V703.411Z" fill="#EDDC60"/>
</svg>
